<svg xmlns="http://www.w3.org/2000/svg" viewBox="0 0 1400 1265"><g id="stroke"><path d="M1363.76,0H0V1265H1400V0ZM1113.13,1203.52H1049.3v-15.63h63.83Zm-71.08,0H978.21v-15.63h63.84Zm-71.08,0H907.13v-15.63H971Zm-71.09,0H836v-15.63h63.84Zm-71.09,0H765v-15.63h63.83Zm-71.08,0H693.87v-15.63h63.84Zm-71.09,0H622.79v-15.63h63.83Zm11-1043.38h11.63V171H697.61Zm74.83,0h11.63V171H772.44Zm74.83,0H858.9V171H847.27Zm74.82,0h11.63V171H922.09Zm74.83,0h11.63V171H996.92Zm74.83,0h11.62V171h-11.62Zm74.82,0h11.63V171h-11.63Zm74.83,0H1233V171H1221.4Zm74.82,0h11.63V171h-11.63Zm0,13.6h11.63v10.88h-11.63Zm14.35,402V454.05h38.88V575.73ZM1191.47,889.1h41.72v21.46h-41.72Zm172.29,287.75h-39.67v-21.5h39.67Zm-179.54,8.33h-8V1081h8ZM1120.38,1081h8.13v104.23h-8.13Zm10.85,0h7v104.23h-7Zm32.53,50.76h-22.83v-23.92h22.83Zm-22.83,2.71h22.83v24.12h-22.83Zm22.83-29.35h-22.83V1081h22.83Zm-22.83,56.18h22.83v23.93h-22.83Zm25.55-80.3h7v104.23h-7Zm17.74-2.72h-63.84v-15.46h63.84Zm179.54-140.74v21.45h-39.67V937.49Zm-42.39,96.77v45.67H1295v-45.67Zm2.72,21.46v-21.46h39.67v21.46ZM1295,985.88h26.37v45.67H1295Zm-103.53,72.56h41.72v21.49h-41.72Zm0,24.21h41.72v21.46h-41.72Zm41.72,70h-41.72v-21.49h41.72Zm-41.72-24.21v-21.6h41.72v21.6Zm70.81-48.49h-26.37v-45.67h26.37Zm-26.37-48.38V985.88h26.37v45.67Zm-44.44,145.3v-21.5h41.72v21.5Zm44.44-48.43v-45.77h26.37v45.77Zm29.08-94.16h27.3v94.16H1265Zm30,48.39h26.37v45.77H1295Zm29.09,70v-21.49h39.67v21.49Zm39.67-24.21h-39.67v-21.6h39.67Zm0-24.31h-39.67v-21.46h39.67Zm0-24.18h-39.67v-21.49h39.67Zm0-48.38h-39.67v-21.5h39.67Zm0-24.22h-39.67V985.88h39.67Zm0-24.17h-39.67v-21.5h39.67Zm0-48.39h-39.67v-21.5h39.67Zm0-45.67v21.46h-39.67V889.1Zm-42.39,48.39v45.67H1295V937.49Zm-29.08,94.06H1265V937.49h27.3Zm-30-48.39h-26.37V937.49h26.37Zm-70.81-69.89h41.72v21.5h-41.72Zm0,24.22h41.72v21.45h-41.72Zm0,24.17h41.72v21.5h-41.72Zm0,24.22h41.72v21.45h-41.72Zm0,24.17h41.72v21.5h-41.72Zm0,24.21h41.72v21.46h-41.72v-21.46Zm-71.09-4.62v-23.38h63.84v23.38ZM668.89,1185.18V1081h7v104.23Zm-25.55-50.76h22.83v24.12H643.34Zm22.83-2.71H643.34v-23.92h22.83Zm-22.83,29.54h22.83v23.93H643.34Zm22.83-56.18H643.34V1081h22.83Zm-25.55,80.11h-7V1081h7Zm-9.7,0h-8.13V1081h8.13ZM178.06,836.9v13H125v15.26H36.39V836.9Zm-50.33-35.31h14.74v12.33H127.73ZM622.79,173.74h11.63v10.88H622.79Zm67.58,277.59H678.74V440.45h11.63Zm60.48-24.48v10.88H712V426.85Zm.57-172v34.22h-40V254.89Zm-40,36.94h40v7.75h-40Zm0,10.47h40v7.75h-40Zm0,10.47h40v7.76h-40Zm0,10.48h40v34.21h-40Zm42.75,36.93v-108H732.76V187.34h32.43v236.8H732.76v-64Zm11.05,91.15H753.56V440.45h11.63Zm0-13.6H753.56V426.85h11.63Zm0-253.11H753.56V173.74h11.63Zm-14.34,0H712V173.74h38.89Zm0,255.83v10.88H712V440.45Zm0,13.6V575.73H712V454.05ZM760.32,583V644H698.85V583Zm28.32,0V644H763V583Zm37-156.12v10.88H786.79V426.85Zm.57-172v34.22h-40V254.89Zm-40,36.94h40v7.75h-40Zm0,10.47h40v7.75h-40Zm0,10.47h40v7.76h-40Zm0,10.48h40v34.21h-40ZM829,360.18v-108H807.59V187.34H840v236.8H807.59v-64ZM840,451.33H828.39V440.45H840Zm0-13.6H828.39V426.85H840Zm0-253.11H828.39V173.74H840Zm-14.35,0H786.79V173.74h38.88Zm0,255.83v10.88H786.79V440.45Zm0,13.6V575.73H786.79V454.05Zm74.83-27.2v10.88H861.62V426.85Zm.57-172v34.22H861V254.89Zm-40,36.94h40v7.75H861Zm0,10.47h40v7.75H861Zm0,10.47h40v7.76H861Zm0,10.48h40v34.21H861Zm42.75,36.93v-108H882.42V187.34h32.43v236.8H882.42v-64Zm11.06,91.15H903.22V440.45h11.63Zm0-13.6H903.22V426.85h11.63Zm0-253.11H903.22V173.74h11.63Zm-14.35,0H861.62V173.74H900.5Zm0,255.83v10.88H861.62V440.45Zm0,13.6V575.73H861.62V454.05Zm74.82-27.2v10.88H936.44V426.85Zm.58-172v34.22h-40V254.89Zm-40,36.94h40v7.75h-40Zm0,10.47h40v7.75h-40Zm0,10.47h40v7.76h-40Zm0,10.48h40v34.21h-40Zm42.75,36.93v-108H957.24V187.34h32.43v236.8H957.24v-64Zm11,91.15H978V440.45h11.63Zm0-13.6H978V426.85h11.63Zm0-253.11H978V173.74h11.63Zm-14.35,0H936.44V173.74h38.88Zm0,255.83v10.88H936.44V440.45Zm0,13.6V575.73H936.44V454.05Zm74.83-27.2v10.88h-38.88V426.85Zm.57-172v34.22h-40V254.89Zm-40,36.94h40v7.75h-40Zm0,10.47h40v7.75h-40Zm0,10.47h40v7.76h-40Zm0,10.48h40v34.21h-40Zm42.75,36.93v-108h-21.37V187.34h32.43v236.8h-32.43v-64Zm11.06,91.15h-11.63V440.45h11.63Zm0-13.6h-11.63V426.85h11.63Zm0-253.11h-11.63V173.74h11.63Zm-14.35,0h-38.88V173.74h38.88Zm0,255.83v10.88h-38.88V440.45Zm0,13.6V575.73h-38.88V454.05Zm134,128.92v9.81h-171V583ZM1125,426.85v10.88h-38.89V426.85Zm.57-172v34.22h-40V254.89Zm-40,36.94h40v7.75h-40Zm0,10.47h40v7.75h-40Zm0,10.47h40v7.76h-40Zm0,10.48h40v34.21h-40Zm42.75,36.93v-108h-21.38V187.34h32.43v236.8h-32.43v-64Zm11,91.15h-11.63V440.45h11.63Zm0-13.6h-11.63V426.85h11.63Zm0-253.11h-11.63V173.74h11.63Zm-14.34,0h-38.89V173.74H1125Zm0,255.83v10.88h-38.89V440.45Zm0,13.6V575.73h-38.89V454.05Zm74.82-27.2v10.88h-38.88V426.85Zm.58-172v34.22h-40V254.89Zm-40,36.94h40v7.75h-40Zm0,10.47h40v7.75h-40Zm0,10.47h40v7.76h-40Zm0,10.48h40v34.21h-40Zm42.75,36.93v-108h-21.38V187.34h32.43v236.8h-32.43v-64Zm11.05,91.15h-11.63V440.45h11.63Zm0-13.6h-11.63V426.85h11.63Zm0-253.11h-11.63V173.74h11.63Zm-14.35,0h-38.88V173.74h38.88Zm0,255.83v10.88h-38.88V440.45Zm0,13.6V575.73h-38.88V454.05ZM1227.44,583v28.37h-36V583Zm-43.22,420.57h-63.84V987.92h63.84Zm-861.88,194.4H220.12v-30.76H322.34Zm-182.64,0H36.39v-30.76H139.7Zm2.72-30.76h75v30.76h-75Zm179.92-2.72H36.39v-3h286ZM51.93,935.59v14.18H36.39V935.59Zm75.8-35.6h14.74v12.34H127.73Zm14.74-13.43H127.73v-8h14.74Zm0-21.42H127.73V852.6h14.74Zm0,2.71v8H127.73v-8Zm-17.46,8H36.39v-8H125Zm0,2.72v8H36.39v-8Zm0,10.71v8H36.39v-8Zm2.72,0h14.74v8H127.73Zm17.46-36.68h68.46v59.73H145.19Zm323.59-622v21.15H329.48V230.57Zm154-43.23h32.43v64.84H633.85v108h21.37v64H622.79V187.34Zm13.77,170.12V323.25h40v34.21Zm40-36.93h-40v-7.76h40Zm0-10.48h-40V302.3h40Zm0-10.47h-40v-7.75h40Zm0-10.47h-40V254.89h40ZM808.67,583V644H791.36V583Zm61.43,84.27v21.21h29.43v39.79H870.1v20.61H843.63V667.24ZM885,583v81.55H872.82V583Zm2.72,81.55V583h12.16v81.55Zm86.55,2.72v18.49H872.82V667.24ZM959.36,583v81.55H947.2V583Zm14.88,0v81.55H962.08V583Zm31.68,84.27v81.61H977V728.24H947.52V688.45H977V667.24Zm107.21,318h-8V881h8ZM1049.3,881h8.12V985.2h-8.12Zm10.84,0h7V985.2h-7Zm32.54,50.76h-22.83V907.81h22.83Zm-22.83,2.72h22.83v24.11h-22.83Zm22.83-29.36h-22.83V881h22.83Zm-22.83,56.19h22.83V985.2h-22.83ZM1095.4,881h7V985.2h-7Zm17.73-2.71H1049.3V862.79h63.83ZM1042.05,985.2h-8V881h8Zm-71.08,0h-8V881h8Zm-71.09,0h-8V881h8Zm-71.09,0h-8V881h8Zm-71.08,0h-8V881h8Zm-71.09,0h-8V881h8ZM322.34,1145.45H301.06v-9.69h21.28ZM231.11,852.6v12.54H216.37V852.6Zm-14.74-83.16h14.74v8H216.37Zm479.76-107.2v92.91H650.49V662.24Zm112.54,0v92.91H763V662.24ZM791.36,829.66V773.35h17.31v56.31Zm-120.83,0V773.35h25.6v56.31Zm-20-71.79h17.32v12.77H650.49Zm48.36-12h61.47v9.23H698.85Zm0-12h61.47v9.24H698.85Zm0-12h61.47v9.24H698.85Zm0-12h61.47v9.23H698.85Zm0-12h61.47v9.24H698.85Zm0-12h61.47v9.23H698.85Zm0-11.95h61.47v9.23H698.85Zm109.82,96.44H791.36V757.87h17.31Zm-20,0H763V757.87h25.61Zm-28.32-12.77v12.77H698.85V757.87Zm-64.19,12.77h-25.6V757.87h25.6Zm-45.64,2.71h17.32v56.31H650.49Zm48.36,0h61.47v56.31H698.85ZM763,829.66V773.35h25.61v56.31Zm-2.71-158.18H698.85v-9.24h61.47ZM647.78,829.66h-25V710.06h25ZM54.65,1064.58h13.4v9.86H54.65ZM84.17,1052v9.86H70.77V1052Zm0,35H70.77v-9.85h13.4Zm0-22.43v9.86H70.77v-9.86Zm-29.52,12.58h13.4V1087H54.65Zm0,12.57h13.4v9.86H54.65Zm16.12,0h13.4v9.86H70.77Zm13.4,12.58v9.86H70.77v-9.86ZM86.89,1052h15.55v60.17H86.89ZM128,965.06h13.41v9.86H128Zm29.52,22.44h-13.4v-9.86h13.4Zm0,2.72v9.85h-13.4v-9.85Zm0,12.57v9.86h-13.4v-9.86Zm0-27.87h-13.4v-9.86h13.4ZM128,977.64h13.41v9.86H128Zm0,12.58h13.41v9.85H128Zm0,12.57h13.41v9.86H128Zm29.52,12.58v14.27H128v-14.27ZM183,952.48h15.54v60.17H183Zm33.38-73.91h14.74v8H216.37Zm17.45,0h88.4v8h-88.4Zm363.45,121.5h-13.4v-9.85h13.4Zm-29.53,12.58v-9.86h13.41v9.86Zm-245.4,99.52H306.79V1052h15.55ZM201.25,965.06h13.4v9.86h-13.4Zm29.52,22.44h-13.4v-9.86h13.4Zm0,2.72v9.85h-13.4v-9.85Zm0,12.57v9.86h-13.4v-9.86Zm0-27.87h-13.4v-9.86h13.4Zm-29.52,2.72h13.4v9.86h-13.4Zm0,12.58h13.4v9.85h-13.4Zm0,12.57h13.4v9.86h-13.4Zm29.52,12.58v14.27H201.25v-14.27Zm25.52,0h15.54v14.27H256.29Zm18.26-50.31H288v9.86h-13.4Zm29.52,22.44h-13.4v-9.86h13.4Zm0,2.72v9.85h-13.4v-9.85Zm0,12.57v9.86h-13.4v-9.86Zm0-27.87h-13.4v-9.86h13.4Zm-29.52,2.72H288v9.86h-13.4Zm0,12.58H288v9.85h-13.4Zm0,12.57H288v9.86h-13.4Zm29.52,12.58v14.27H274.55v-14.27Zm25.51-62.89h15.55v60.17H329.58Zm91.23-150.89h14.75v12.33H420.81Zm0-21.43h14.75v8H420.81Zm-2.71,8H329.7v-8h88.4Zm17.46-21.43H420.81V754.19h14.75Zm0,2.71v8H420.81v-8Zm-17.46,8H329.7v-8h88.4Zm-88.4,13.43h88.4v8H329.7Zm91.11,0h14.75v8H420.81Zm17.46-36.68h68.46v59.73H438.27Zm177.26-16v28.53H526.91V751.47h-53V738.2ZM476,683.91h33.46v0H582.3v0h33V707.3H476Zm36.18-39.15h67.38V655.1H512.2Zm0-325h11.3V642H512.2Zm0-13.06h67.38V317H512.2ZM579.58,642h-11.3V319.72h11.3ZM537.52,319.72V642h-11.3V319.72Zm2.72,0h11.3V642h-11.3Zm14,0h11.3V642h-11.3Zm25.32,338.1v23.37H512.2V657.82ZM473.86,928.34V915.05h53V900h88.62v28.35Zm-126,36.72h13.4v9.86h-13.4Zm29.52-12.58v9.86H364v-9.86Zm18.27-16.89v14.18H380.09V935.59Zm146.59,77.06H526.69V952.48h15.54ZM524,1099.59h-13.4v-9.86H524Zm-29.52-22.43h13.4V1087h-13.4Zm0-2.72v-9.86h13.4v9.86Zm0-12.58V1052h13.4v9.86Zm0,27.87h13.4v9.86h-13.4ZM524,1087h-13.4v-9.85H524Zm0-12.57h-13.4v-9.86H524Zm0-12.58h-13.4V1052H524Zm-29.52-12.58v-12.4H524v12.4Zm-25.51,0H453.39v-12.4h15.55Zm-18.27,50.31h-13.4v-9.86h13.4Zm-29.52-22.43h13.4V1087h-13.4Zm0-2.72v-9.86h13.4v9.86Zm0-12.58V1052h13.4v9.86Zm0,27.87h13.4v9.86h-13.4Zm29.52-2.72h-13.4v-9.85h13.4Zm0-12.57h-13.4v-9.86h13.4Zm0-12.58h-13.4V1052h13.4Zm-29.52-12.58v-12.4h29.52v12.4Zm-25.51,0H380.09v-12.4h15.55ZM524,1000.07h-13.4v-9.85H524Zm-29.52,12.58v-9.86h13.4v9.86Zm0-47.59h13.4v9.86h-13.4Zm0,12.58h13.4v9.86h-13.4Zm0,22.43v-9.85h13.4v9.85ZM524,987.5h-13.4v-9.86H524Zm0-12.58h-13.4v-9.86H524Zm0-12.58h-13.4v-9.86H524Zm-16.12,0h-13.4v-9.86h13.4Zm-16.12,50.31H476.18V952.48h15.55Zm-15.55,17v-14.27h15.55v14.27Zm-73.3-14.27h15.55v14.27H402.88Zm18.27,0h29.52v14.27H421.15Zm0-50.31h13.4v9.86h-13.4Zm29.52,22.44h-13.4v-9.86h13.4Zm0,2.72v9.85h-13.4v-9.85Zm0,12.57v9.86h-13.4v-9.86Zm0-27.87h-13.4v-9.86h13.4Zm-29.52,2.72h13.4v9.86h-13.4Zm0,12.58h13.4v9.85h-13.4Zm0,12.57h13.4v9.86h-13.4Zm32.24,12.58h15.55v14.27H453.39Zm15.55-2.72H453.39V952.48h15.55Zm-18.27-50.31h-13.4v-9.86h13.4Zm-16.12,0h-13.4v-9.86h13.4Zm-16.12,50.31H402.88V952.48h15.55Zm-22.79,17H380.09v-14.27h15.55Zm7.24,7.24h15.55v12.4H402.88Zm73.3,0h15.55v12.4H476.18Zm18.27-7.24v-14.27H524v14.27Zm16.12-17v-9.86H524v9.86Zm31.66-62.88H526.69V935.59h15.54Zm-18.26,0H494.45V935.59H524Zm-32.24,0H476.18V935.59h15.55Zm-22.79,0H453.39V935.59h15.55Zm-18.27,0H421.15V935.59h29.52Zm-32.24,0H402.88V935.59h15.55Zm-22.79,2.71v60.17H380.09V952.48Zm-18.27,35H364v-9.86h13.4Zm0,2.72v9.85H364v-9.85Zm0,12.57v9.86H364v-9.86Zm0-37.73v9.86H364v-9.86Zm-29.52,12.58h13.4v9.86h-13.4Zm0,12.58h13.4v9.85h-13.4Zm0,12.57h13.4v9.86h-13.4Zm29.52,12.58v14.27H347.85v-14.27Zm0,21.51v12.4H347.85v-12.4Zm0,50.13H364v-9.85h13.4Zm-29.52-22.43h13.4v9.86h-13.4Zm0,12.58h13.4V1087h-13.4Zm29.52-2.72H364v-9.86h13.4Zm0-12.58H364V1052h13.4ZM361.25,1052v9.86h-13.4V1052Zm-13.4,37.73h13.4v9.86h-13.4Zm16.12,0h13.4v9.86H364Zm13.4,12.58v9.86H364v-9.86Zm2.72-50.31h15.55v60.17H380.09Zm15.55,62.89v13.62H380.09v-13.62Zm7.24,0h15.55v13.62H402.88Zm0-2.72V1052h15.55v60.17Zm18.27-9.86h13.4v9.86h-13.4Zm16.12,0h13.4v9.86h-13.4ZM453.39,1052h15.55v60.17H453.39Zm15.55,62.89v13.62H453.39v-13.62Zm7.24,0h15.55v13.62H476.18Zm0-2.72V1052h15.55v60.17Zm18.27-9.86h13.4v9.86h-13.4Zm16.12,0H524v9.86h-13.4ZM526.69,1052h15.54v60.17H526.69Zm15.54,62.89v13.62H526.69v-13.62Zm0-65.61H526.69v-12.4h15.54Zm-15.54-19.64v-14.27h15.54v14.27Zm22.79-94.05H565v14.18H549.48Zm-25.29-83v12.54H509.45V852.6Zm-14.74,26h14.74v8H509.45Zm0,10.71h14.74v8H509.45Zm17.46,0h88.62v8H526.91Zm0-2.72v-8h88.62v8Zm0-10.71v-8h88.62v8Zm-2.72,0H509.45v-8h14.74ZM509.45,900h14.74v12.34H509.45Zm14.74-145.8v12.54H509.45V754.19Zm91.34,34H526.91v-8h88.62Zm-106.08-8h14.74v8H509.45Zm106.08-2.72H526.91v-8h88.62Zm-91.34,0H509.45v-8h14.74Zm-14.74,24.15h14.74v12.33H509.45Zm0-2.72v-8h14.74v8Zm17.46-8h88.62v8H526.91Zm0,25.77v-15h88.62v28.07H473.86v-13Zm88.62,20.26v28.24H526.91V849.88h-53v-13Zm-108.8,15.7v59.73H438.27V852.6ZM420.81,900h14.75v12.34H420.81Zm14.75-13.43H420.81v-8h14.75Zm-17.46,0H329.7v-8h88.4Zm0,2.72v8H329.7v-8Zm2.71,0h14.75v8H420.81Zm14.75-24.14H420.81V852.6h14.75Zm0,2.71v8H420.81v-8Zm-17.46,8H329.7v-8h88.4Zm0,24.14v15.06h53v13.29H329.7V900Zm-40.73,35.6v14.18H347.85V935.59Zm-16.12,16.89v9.86h-13.4v-9.86Zm-31.67,62.89h15.55v14.27H329.58Zm-7.24,14.27H306.79v-14.27h15.55Zm-18.27,69.95h-13.4v-9.86h13.4Zm-29.52-22.43H288V1087h-13.4Zm0-2.72v-9.86H288v9.86Zm0-12.58V1052H288v9.86Zm0,27.87H288v9.86h-13.4Zm29.52-2.72h-13.4v-9.85h13.4Zm0-12.57h-13.4v-9.86h13.4Zm0-12.58h-13.4V1052h13.4Zm-29.52-12.58v-12.4h29.52v12.4Zm-164.87,65.61h15.55v13.62H109.68Zm0-2.72V1052h15.54v60.17Zm47.79-12.58h-13.4v-9.86h13.4Zm-29.52-35h13.41v9.86H128Zm0,12.58h13.41V1087H128Zm0,12.57h13.41v9.86H128Zm29.52-2.72h-13.4v-9.85h13.4Zm0-12.57h-13.4v-9.86h13.4Zm0-12.58h-13.4V1052h13.4Zm-16.11,0H128V1052h13.41ZM128,1102.31h13.41v9.86H128Zm16.12,0h13.4v9.86h-13.4ZM160.19,1052h15.55v60.17H160.19Zm15.55,62.89v13.62H160.19v-13.62Zm7.25,0h15.54v13.62H183Zm0-2.72V1052h15.54v60.17Zm47.78-75.29v12.4H201.25v-12.4Zm18.27,12.4H233.49v-12.4H249Zm-18.27,50.31h-13.4v-9.86h13.4Zm-29.52-35h13.4v9.86h-13.4Zm0,12.58h13.4V1087h-13.4Zm0,12.57h13.4v9.86h-13.4Zm29.52-2.72h-13.4v-9.85h13.4Zm0-12.57h-13.4v-9.86h13.4Zm0-12.58h-13.4V1052h13.4ZM214.65,1052v9.86h-13.4V1052Zm-13.4,50.31h13.4v9.86h-13.4Zm16.12,0h13.4v9.86h-13.4ZM233.49,1052H249v60.17H233.49ZM249,1114.89v13.62H233.49v-13.62Zm7.25-78h15.54v12.4H256.29Zm-7.25-7.24H233.49v-14.27H249Zm-50.51,19.64H183v-12.4h15.54Zm-22.79,0H160.19v-12.4h15.55Zm-18.27,0H128v-12.4h29.52Zm-32.24,0H109.69v-12.4h15.54Zm2.72,65.61h29.52v13.62H128Zm73.3,0h29.52v13.62H201.25Zm55,13.62v-13.62h15.54v13.62Zm0-16.34V1052h15.54v60.17Zm18.26-9.86H288v9.86h-13.4Zm16.12,0h13.4v9.86h-13.4Zm31.67-53H306.79v-12.4h15.55Zm22.79-12.4v12.4H329.58v-12.4ZM329.58,1052h15.55v60.17H329.58Zm18.27,50.31h13.4v9.86h-13.4Zm29.52,12.58v13.62H347.85v-13.62Zm43.78,0h29.52v13.62H421.15Zm73.3,0H524v13.62H494.45Zm55,13.62v-13.62H565v13.62Zm18.26-13.62h29.53v13.62H567.74Zm0-37.73h13.41V1087H567.74Zm29.53,22.43h-13.4v-9.86h13.4Zm0-12.58h-13.4v-9.85h13.4Zm-29.53,2.72h13.41v9.86H567.74Zm0,12.58h13.41v9.86H567.74Zm16.13,9.86v-9.86h13.4v9.86Zm13.4-37.73h-13.4v-9.86h13.4Zm-16.12,0H567.74v-9.86h13.41Zm-13.41-12.58V1052h13.41v9.86ZM565,1112.17H549.48V1052H565Zm-15.55-62.89v-12.4H565v12.4Zm0-19.64v-14.27H565v14.27Zm0-17V952.48H565v60.17Zm18.26-35h13.41v9.86H567.74Zm0-2.72v-9.86h13.41v9.86Zm0-12.58v-9.86h13.41v9.86Zm0,37.73v-9.85h13.41v9.85Zm29.53-12.57h-13.4v-9.86h13.4Zm0-12.58h-13.4v-9.86h13.4Zm0-12.58h-13.4v-9.86h13.4Zm-29.53-12.57V935.59h29.53v14.18ZM600,935.59h15.54v14.18H600Zm15.33-254.4h-19V280.55h19Zm-21.72,0H582.3V280.55h11.3ZM579.58,304H512.2v-23.4h67.38Zm-70.1,0V681.19h-11.3V280.55h11.3Zm-14,377.24H476V280.55h19.44Zm-26.68,0h-19V280.55h19Zm-21.72,0h-11.3V280.55h11.3Zm-81.41,0V657.82H433v23.37Zm0-36.43H433V655.1H365.65Zm0-325H377V642H365.65Zm0-13.06H433V317H365.65ZM433,642h-11.3V319.72H433ZM391,319.72V642H379.67V319.72Zm2.71,0H405V642H393.69Zm14,0H419V642h-11.3ZM433,304H365.65v-23.4H433Zm-70.1,0V681.19H351.63V280.55h11.31Zm-14,377.24H329.48V280.55h19.44Zm-19.44,2.72h33.46v0h72.82v0h33V707.3H329.48ZM476,710h139.3V731H476Zm-4.88,28.18v13.27h-53v15.26H329.7V738.2Zm-53,63.39v15h53v13H329.7V801.59Zm53,35.31v13h-53v15.26H329.7V836.9Zm-126,98.69v14.18H329.58V935.59Zm-22.79,77.06H306.79V952.48h15.55Zm-18.27-50.31h-13.4v-9.86h13.4Zm-16.12,0h-13.4v-9.86H288Zm-16.12,50.31H256.29V952.48h15.54Zm-22.79,0H233.49V952.48H249Zm-18.27-50.31h-13.4v-9.86h13.4Zm-16.12,0h-13.4v-9.86h13.4Zm-31.66,53h15.54v14.27H183Zm-7.25,14.27H160.19v-14.27h15.55Zm-50.51,0H109.68v-14.27h15.55Zm-22.79,0H86.89v-14.27h15.55Zm0,7.24v12.4H86.89v-12.4Zm0,78v13.62H86.89v-13.62Zm172.11,13.62v-13.62h29.52v13.62Zm32.24-13.62h15.55v13.62H306.79Zm22.79,0h15.55v13.62H329.58ZM600,1128.51v-13.62h15.54v13.62Zm15.54-16.34H600V1052h15.54Zm-18.26-50.31h-13.4V1052h13.4Zm-29.53-12.58v-12.4h29.53v12.4Zm0-19.64v-14.27h29.53v14.27Zm16.13-17v-9.86h13.4v9.86ZM600,952.48h15.54v60.17H600Zm15.33-674.64H476v-23.4h139.3Zm-146.54,0H329.48v-23.4h139.3ZM322.23,681.19h-19V280.55h19Zm-21.71,0H289.21V280.55h11.31Zm-81.41,0V657.82H286.5v23.37Zm0-36.43H286.5V655.1H219.11Zm0-325h11.3V642h-11.3Zm0-13.06H286.5V317H219.11ZM286.5,642H275.19V319.72H286.5ZM244.43,319.72V642h-11.3V319.72Zm2.72,0h11.3V642h-11.3Zm14,0h11.31V642H261.17ZM286.5,304H219.11v-23.4H286.5Zm-70.11,0V681.19h-11.3V280.55h11.3Zm-14,377.24H182.93V280.55h19.44Zm-19.44,2.72h33.46v0h72.82v0h33V707.3H182.93ZM329.48,710h139.3V731H329.48Zm-7.26,67.42h-88.4v-8h88.4Zm-105.85,2.72h14.74v8H216.37Zm17.45,0h88.4v8h-88.4Zm88.4,95.69h-88.4v-8h88.4Zm-91.11,0H216.37v-8h14.74ZM216.37,900h14.74v12.34H216.37Zm0-2.71v-8h14.74v8Zm17.45-8h88.4v8h-88.4Zm88.52,46.31v14.18H306.79V935.59Zm-18.27,14.18H274.55V935.59h29.52Zm-32.24,0H256.29V935.59h15.54Zm-22.79,0H233.49V935.59H249Zm-18.27,0H201.25V935.59h29.52Zm-32.24,0H183V935.59h15.54Zm-22.79,62.88H160.19V952.48h15.55Zm-18.27-50.31h-13.4v-9.86h13.4Zm-16.11,0H128v-9.86h13.41Zm-16.13,50.31H109.68V952.48h15.54Zm-22.79,0H86.89V952.48h15.55ZM54.65,965.06h13.4v9.86H54.65ZM84.17,987.5H70.77v-9.86h13.4Zm0-12.58H70.77v-9.86h13.4Zm-29.52,2.72h13.4v9.86H54.65Zm0,12.58h13.4v9.85H54.65Zm16.12,0h13.4v9.85H70.77Zm13.4,12.57v9.86H70.77v-9.86Zm0-40.45H70.77v-9.86h13.4Zm-16.12,0H54.65v-9.86h13.4Zm-16.12,50.31H36.39V952.48H51.93Zm2.72-9.86h13.4v9.86H54.65Zm29.52,12.58v14.27H54.65v-14.27Zm0,21.51v12.4H54.65v-12.4ZM68.05,1052v9.86H54.65V1052Zm-16.12,60.17H36.39V1052H51.93Zm2.72-9.86h13.4v9.86H54.65Zm29.52,12.58v13.62H54.65v-13.62Zm-23.78,20.87H81.74v9.69H60.39Zm24.06,0H105.8v9.69H84.45Zm24.07,0h21.35v9.69H108.52Zm24.07,0h21.35v9.69H132.59Zm24.06,0H178v9.69H156.65Zm24.07,0h21.35v9.69H180.72Zm24.07,0h21.35v9.69H204.79Zm24.06,0H250.2v9.69H228.85Zm24.07,0h21.35v9.69H252.92Zm24.07,0h21.35v9.69H277Zm73.88,0v9.69H329.58v-9.69Zm2.71,0h21.35v9.69H353.58Zm24.07,0H399v9.69H377.65Zm24.07,0h21.34v9.69H401.72Zm24.06,0h21.35v9.69H425.78Zm24.07,0H471.2v9.69H449.85Zm24.07,0h21.35v9.69H473.92Zm24.06,0h21.35v9.69H498Zm24.07,0H543.4v9.69H522.05Zm24.07,0h21.35v9.69H546.12Zm24.07,0h21.34v9.69H570.19Zm24.06,0h21.28v9.69H594.25Zm5.74-86.48v-12.4h15.54v12.4Zm0-33.91h15.54v14.27H600ZM622.79,881h8.13V985.2h-8.13Zm10.84,0h7V985.2h-7Zm32.54,50.76H643.34V907.81h22.83Zm-22.83,2.72h22.83v24.11H643.34Zm22.83-29.36H643.34V881h22.83Zm-22.83,56.19h22.83V985.2H643.34ZM668.89,881h7V985.2h-7Zm17.73-2.71H622.79V862.79h63.83Zm0-18.19H622.79V836.9h63.83Zm7.25,20.9H702V985.2h-8.13Zm10.85,0h7V985.2h-7Zm32.53,50.76H714.43V907.81h22.82Zm-22.82,2.72h22.82v24.11H714.43Zm22.82-29.36H714.43V881h22.82Zm-22.82,56.19h22.82V985.2H714.43ZM740,881h7V985.2h-7Zm17.74-2.71H693.87V862.79h63.84Zm0-18.19H693.87V836.9h63.84Zm71.08,18.19H765V862.79h63.83Zm-20.45,53.47H785.51V907.81h22.83Zm-22.83,2.72h22.83v24.11H785.51Zm22.83-29.36H785.51V881h22.83ZM765,881h8.13V985.2H765Zm10.84,0h7V985.2h-7Zm9.71,80.31h22.83V985.2H785.51ZM811.06,881h7V985.2h-7Zm17.73-20.9H765V836.9h63.83ZM836,881h8.13V985.2H836Zm10.85,0h7V985.2h-7Zm32.54,50.76H856.59V907.81h22.84Zm-22.84,2.72h22.84v24.11H856.59Zm22.84-29.36H856.59V881h22.84Zm-22.84,56.19h22.84V985.2H856.59ZM882.14,881h7V985.2h-7Zm17.74-2.71H836V862.79h63.84Zm0-18.19H836V836.9h63.84Zm-56.25-108.5h11.59v78.09H843.63Zm58.62-47.09H944.8V707H902.25Zm0,5.22H944.8v2.51H902.25Zm0,5.23H944.8v13.32H902.25Zm42.55-13.17H902.25V688.45H944.8ZM947.52,731h26.72v17.89H872.82V731h74.7ZM977,829.66V751.57h12.16v78.09Zm-2.72,0H962.08V751.57h12.16Zm-74.39-78.09v78.09H887.69V751.57Zm2.72,78.09V751.57h12.16v78.09Zm14.88-78.09h12.16v78.09H917.45Zm14.87,0h12.16v78.09H932.32Zm14.88,0h12.16v78.09H947.2Zm-62.23,0v78.09H872.82V751.57ZM870.1,829.66H857.94V751.57H870.1Zm37,51.31h8.13V985.2h-8.13ZM918,881h7V985.2h-7Zm32.53,50.76H927.68V907.81h22.83Zm-22.83,2.72h22.83v24.11H927.68Zm22.83-29.36H927.68V881h22.83Zm-22.83,56.19h22.83V985.2H927.68ZM953.23,881h7V985.2h-7ZM971,878.26H907.13V862.79H971Zm0-18.19H907.13V836.9H971Zm7.24,20.9h8.13V985.2h-8.13Zm10.85,0h7V985.2h-7Zm32.54,50.76H998.77V907.81h22.83Zm-22.83,2.72h22.83v24.11H998.77Zm22.83-29.36H998.77V881h22.83Zm-22.83,56.19h22.83V985.2H998.77ZM1024.31,881h7V985.2h-7Zm17.74-2.71H978.21V862.79h63.84Zm0-18.19H978.21V836.9h63.84Zm-50.22-30.41V751.57h14.09v78.09Zm21.33-225.48h31.51v6h-31.51Zm0,8.7h31.51v6h-31.51Zm0,8.69h31.51v6h-31.51Zm0,8.7h31.51v6h-31.51Zm0,8.69h31.51v6h-31.51Zm0,8.69h31.51v6h-31.51Zm0,8.7h31.51v6h-31.51Zm0,8.69h31.51v6h-31.51Zm0,8.69h31.51v6h-31.51Zm0,8.7h31.51v6h-31.51Zm0,8.69h31.51v6h-31.51Zm0,8.7h31.51v6h-31.51Zm0,8.69h31.51v6h-31.51Zm0,8.69h31.51v6h-31.51Zm0,8.69h31.51v6h-31.51Zm0,8.7h31.51v6h-31.51Zm0,8.69h31.51v6h-31.51Zm0,8.69h31.51v6h-31.51Zm0,8.7h31.51v6h-31.51Zm0,8.69h31.51v6h-31.51Zm0,8.69h31.51v6h-31.51Zm0,8.7h31.51v6h-31.51Zm0,8.69h31.51v6h-31.51Zm0,8.69h31.51v6h-31.51Zm0,8.7h31.51v6h-31.51Zm34.23-168.49h23.85v38.31H1059v49h12.36v38.26h-23.92Zm105.33-40.16h31.46v6h-31.46Zm0,43.47h31.46v6h-31.46Zm0-2.72v-6h31.46v6Zm0,11.42h31.46v6h-31.46Zm0,8.69h31.46v6h-31.46Zm0,8.69h31.46v6h-31.46Zm0,8.7h31.46v6h-31.46Zm0,8.69h31.46v6h-31.46Zm0,8.7h31.46v6h-31.46Zm0,8.69h31.46v6h-31.46Zm0,8.69h31.46v6h-31.46Zm0,8.69h31.46v6h-31.46Zm0,8.7h31.46v6h-31.46Zm0,8.69h31.46v6h-31.46Zm0,8.69h31.46v6h-31.46Zm0,8.7h31.46v6h-31.46Zm0,34.77h31.46v6h-31.46Zm0-2.72v-6h31.46v6Zm0-8.69v-6h31.46v6Zm0-8.69v-6h31.46v6Zm0,28.79h31.46v6h-31.46Zm0-191.25h31.46v6h-31.46Zm0,8.69h31.46v6h-31.46Zm0,8.7h31.46v6h-31.46ZM1150,769.91h-24V731.65h12.39v-49H1126V644.34h24Zm-13.88,48.84h-74V772.63h74ZM1074,731.65h6v38.26h-6Zm8.67,0h6v38.26h-6Zm8.67,0h6v38.26h-6Zm8.67,0h6v38.26h-6Zm8.67,0h6v38.26h-6Zm8.67,0h5.95v38.26h-5.95Zm0-2.77h-46.07v0h-9.65V685.36h74.06v43.57h-9.67v0Zm5.88-46.23h-6V644.34h6Zm-8.67,0h-5.95V644.34h5.95Zm-8.67,0h-6V644.34h6Zm-8.67,0h-6V644.34h6Zm-8.67,0h-5.95V644.34h5.95Zm-8.67,0h-6V644.34h6Zm-32.52,90h12V818.8h-12Zm91.45,0H1150V818.8h-11.16Zm13.88,40.2h31.46v6h-31.46Zm38.75-32.66h36V805.1h-36Zm0-2.72V761.22h36v16.23Zm36-19h-16.52V660.66h16.52Zm-19.24,0h-16.73V660.66h16.73Zm-24-157h-31.46v-6h31.46ZM1150,641.62h-12.06V595.49H1150Zm-14.78,0h-74V595.49h74Zm-76.77,0h-11.06V595.49h11.06Zm-13.78-40.15h-31.51v-6h31.51ZM836.39,829.66h-25V710.06h25Zm-27.72-182.9v12.76H791.36V646.76Zm-20,12.76H763V646.76h25.61Zm-28.32,0H698.85V646.76h61.47Zm-64.19,0h-25.6V646.76h25.6Zm-28.32,0H650.49V646.76h17.32ZM650.49,644V583h17.32V644Zm-2.71,63.3h-25V583h25Zm-25-131.61V454.05h11.63V575.73Zm0-124.4V440.45h11.63v10.88Zm0-13.6V426.85h11.63v10.88Zm14.35-10.88H676v10.88H637.14ZM615.32,251.72H476V230.57h139.3ZM322.23,277.84H182.93v-23.4h139.3ZM175.69,681.19h-19V280.55h19Zm-21.72,0h-11.3V280.55H154Zm-81.41,0V657.82H140v23.37Zm0-36.43H140V655.1H72.56Zm0-325H83.87V642H72.56Zm0-13.06H140V317H72.56ZM140,642h-11.3V319.72H140ZM97.89,319.72V642H86.58V319.72Zm2.71,0h11.31V642H100.6Zm14,0h11.31V642H114.62ZM140,304H72.56v-23.4H140Zm-70.1,0V681.19H58.54V280.55H69.85Zm-14,377.24H36.39V280.55H55.83Zm-19.44,2.72H69.85v0h72.82v0h33V707.3H36.39ZM182.93,710h139.3V731H182.93ZM322.22,738.2v28.53h-88.4V751.47h-53V738.2Zm-91.11,16v12.54H216.37V754.19Zm-14.74,47.4h14.74v12.33H216.37Zm0-2.72v-8h14.74v8Zm17.45-8h88.4v8h-88.4Zm88.4,74.27h-88.4V849.88h-53v-13H322.22Zm-88.4,49.91V900h88.4v28.35H180.78V915.05Zm-58.08,34.72H160.19V935.59h15.55Zm-18.27,0H128V935.59h29.52Zm-32.24,0H109.69V935.59h15.54Zm-22.79,0H86.89V935.59h15.55Zm-18.27,0H54.65V935.59H84.17Zm-32.24,65.6v14.27H36.39v-14.27Zm0,21.51v12.4H36.39v-12.4Zm0,78v13.62H36.39v-13.62Zm5.74,20.87v9.69H36.39v-9.69Zm0,12.41H322.34v10.58H36.39v-10.58Zm293.2,0H615.53v10.58H329.58v-10.58Zm-21.29,13.3h286v3H329.58Zm0,5.71H432.9v30.76H329.58Zm106,0h75v30.76h-75Zm77.7,0H615.53v30.76H513.32ZM622.79,987.92h63.83v15.62H622.79Zm71.08,0h63.84v15.62H693.87Zm71.09,0h63.83v15.62H765Zm71.08,0h63.84v15.62H836Zm71.09,0H971v15.62H907.13Zm71.08,0h63.84v15.62H978.21Zm71.09,0h63.83v15.62H1049.3ZM1120.38,881h8.13V985.2h-8.13Zm46.1,104.23V881h7V985.2Zm-25.55-50.75h22.83v24.11h-22.83Zm22.83-2.72h-22.83V907.81h22.83Zm-22.83,29.55h22.83V985.2h-22.83Zm22.83-56.19h-22.83V881h22.83Zm-25.54,80.11h-7V881h7Zm46,0h-8V881h8Zm0-106.94h-63.84V862.79h63.84Zm-71.09-18.19H1049.3V836.9h63.83Zm-100-30.41v-8.14h171v8.14Zm178.31-21.84h36v21.84h-36Zm38.69,0h94.91v21.84h-94.91Zm0-2.72V780.17h94.91V805.1Zm26-142.6h43v7.68h-43Zm0,10.4h43v7.68h-43Zm0,10.39h43v52.57h-43Zm0,55.29h43v7.68h-43Zm0,10.4h43v7.68h-43Zm0,10.4h43v7.68h-43Zm43-99.6h-43V652.1h43Zm-43,110h43v7.68h-43Zm71.67,10.4h36V805.1h-36Zm0-2.72V761.22h36v16.23Zm0-116.79h16.51V758.5h-16.51Zm36,97.84H1347V660.66h16.75Zm0-100.56h-36V641.77l36-.06Zm-38.69,119.51h-23.24V641.82l23.24,0Zm-26-128.06h-43V641.9l43-.07ZM1253.4,777.45h-23.24V642l23.24,0Zm-26-119.51h-36V642l36-.06Zm-36-18.63V614.06h36v25.18Zm-185.55,25.21H991.83V583h14.09Zm-16.8,0H977V583h12.16ZM944.48,583v81.55H932.32V583Zm-14.87,81.55H917.45V583h12.16Zm-14.88,0H902.57V583h12.16ZM870.1,583v81.55H857.94V583Zm-14.88,81.55H843.63V583h11.59Zm-18.83,42.82h-25V583h25ZM696.13,583V644h-25.6V583Zm-59-7.24V454.05H676V575.73Zm0-124.4V440.45H676v10.88Zm53.23-13.6H678.74V426.85h11.63Zm0-13.59H657.94v-64h21.37v-108H657.94V187.34h32.43Zm0-239.52H678.74V173.74h11.63Zm-14.35,0H637.14V173.74H676Zm-60.48,38.7H36.63V38.43H615.54Zm-293.31,7.25v21.15H182.93V230.57ZM175.69,277.84H36.39v-23.4h139.3ZM36.39,710h139.3V731H36.39ZM178.06,738.2v13.27H125v15.26H36.39V738.2Zm-35.59,39.24H127.73v-8h14.74Zm-17.46,0H36.39v-8H125Zm0,2.72v8H36.39v-8Zm2.72,0h14.74v8H127.73Zm14.74-13.43H127.73V754.19h14.74ZM36.39,790.87H125v8H36.39Zm91.34,0h14.74v8H127.73Zm17.46-36.68h68.46v59.73H145.19Zm88.63,62.45v-15h88.4v28.07H180.78v-13ZM125,900v15.06h53.05v13.29H36.39V900ZM36.39,1200.66h286v3H36.39Zm293.19,0h286v3H329.58Zm293.21-194.4h63.83v23.38H622.79Zm71.08,0h63.84v23.38H693.87Zm71.09,0h63.83v23.38H765Zm71.08,0h63.84v23.38H836Zm71.09,0H971v23.38H907.13Zm71.08,0h63.84v23.38H978.21Zm71.09,0h63.83v23.38H1049.3Zm134.92-146.19h-63.84V836.9h63.84Zm143.57-30.41V807.82h36v21.84Zm36-190.67-36,.07v-25h36Zm-38.69.07-94.91.17V614.06h94.91Zm-94.91-27.72V583h94.91v28.37Zm44.47-184.49v10.88h-38.88V426.85Zm.57-172v34.22h-40V254.89Zm-40,36.94h40v7.75h-40Zm0,10.47h40v7.75h-40Zm0,10.47h40v7.76h-40Zm0,10.48h40v34.21h-40Zm42.75,36.93v-108h-21.37V187.34H1289v236.8h-32.43v-64ZM1289,451.33h-11.63V440.45H1289Zm0-13.6h-11.63V426.85H1289Zm0-253.11h-11.63V173.74H1289Zm-14.35,0h-38.88V173.74h38.88Zm0,255.83v10.88h-38.88V440.45Zm0,13.6V575.73h-38.88V454.05Zm35.94-2.72V440.45h38.88v10.88Zm38.88-24.48v10.88h-38.88V426.85Zm.58-172v34.22h-40V254.89Zm-40,36.94h40v7.75h-40Zm0,10.47h40v7.75h-40Zm0,10.47h40v7.76h-40Zm0,10.48h40v34.21h-40Zm42.75,36.93v-108h-21.38V187.34h32.39v236.8h-32.39v-64Zm11,66.67v10.88h-11.59V426.85Zm-11.59,13.6h11.59v10.88h-11.59Zm11.59-255.83h-11.59V173.74h11.59Zm-14.31,0h-38.88V173.74h38.88Zm-53.23,2.72h32.43v64.84h-21.37v108h21.37v64h-32.43Zm0,239.51h11.63v10.88h-11.63Zm0,13.6h11.63v10.88h-11.63Zm0,13.6h11.63V575.73h-11.63Zm-18.87,121.68V454.05H1289V575.73ZM1289,171h-11.63V160.14H1289Zm-14.35,0h-38.88V160.14h38.88Zm-53.23,2.71H1233v10.88H1221.4Zm0,13.6h32.43v64.84h-21.38v108h21.38v64H1221.4Zm0,239.51H1233v10.88H1221.4Zm0,13.6H1233v10.88H1221.4Zm0,13.6H1233V575.73H1221.4Zm-18.88,121.68V454.05h11.63V575.73ZM1214.15,171h-11.63V160.14h11.63Zm-14.35,0h-38.88V160.14h38.88Zm-53.23,2.71h11.63v10.88h-11.63Zm0,13.6H1179v64.84h-21.37v108H1179v64h-32.43Zm0,239.51h11.63v10.88h-11.63Zm0,13.6h11.63v10.88h-11.63Zm0,13.6h11.63V575.73h-11.63Zm-18.88,121.68V454.05h11.63V575.73ZM1139.32,171h-11.63V160.14h11.63ZM1125,171h-38.89V160.14H1125Zm-53.23,2.71h11.62v10.88h-11.62Zm0,13.6h32.43v64.84H1082.8v108h21.38v64h-32.43Zm0,239.51h11.62v10.88h-11.62Zm0,13.6h11.62v10.88h-11.62Zm0,13.6h11.62V575.73h-11.62Zm-18.88,121.68V454.05h11.63V575.73ZM1064.5,171h-11.63V160.14h11.63Zm-14.35,0h-38.88V160.14h38.88Zm-53.23,2.71h11.63v10.88H996.92Zm0,13.6h32.43v64.84H1008v108h21.37v64H996.92Zm0,239.51h11.63v10.88H996.92Zm0,13.6h11.63v10.88H996.92Zm0,13.6h11.63V575.73H996.92ZM978,575.73V454.05h11.63V575.73ZM989.67,171H978V160.14h11.63Zm-14.35,0H936.44V160.14h38.88Zm-53.23,2.71h11.63v10.88H922.09Zm0,13.6h32.43v64.84H933.15v108h21.37v64H922.09Zm0,239.51h11.63v10.88H922.09Zm0,13.6h11.63v10.88H922.09Zm0,13.6h11.63V575.73H922.09ZM903.22,575.73V454.05h11.63V575.73ZM914.85,171H903.22V160.14h11.63Zm-14.35,0H861.62V160.14H900.5Zm-53.23,2.71H858.9v10.88H847.27Zm0,13.6H879.7v64.84H858.32v108H879.7v64H847.27Zm0,239.51H858.9v10.88H847.27Zm0,13.6H858.9v10.88H847.27Zm0,13.6H858.9V575.73H847.27ZM828.39,575.73V454.05H840V575.73ZM840,171H828.39V160.14H840Zm-14.35,0H786.79V160.14h38.88Zm-53.23,2.71h11.63v10.88H772.44Zm0,13.6h32.43v64.84H783.5v108h21.37v64H772.44Zm0,239.51h11.63v10.88H772.44Zm0,13.6h11.63v10.88H772.44Zm0,13.6h11.63V575.73H772.44ZM753.56,575.73V454.05h11.63V575.73ZM765.19,171H753.56V160.14h11.63Zm-14.34,0H712V160.14h38.89Zm-53.24,2.71h11.63v10.88H697.61Zm0,13.6h32.44v64.84H708.67v108h21.38v64H697.61Zm0,239.51h11.63v10.88H697.61Zm0,13.6h11.63v10.88H697.61Zm0,13.6h11.63V575.73H697.61ZM678.74,575.73V454.05h11.63V575.73ZM690.37,171H678.74V160.14h11.63ZM676,171H637.14V160.14H676Zm-41.6,0H622.79V160.14h11.63ZM175.69,230.57v21.15H36.39V230.57ZM125,801.59v15h53.05v13H36.39V801.59ZM36.39,1217v-10.59h286V1217H36.39Zm293.19,0v-10.59h286V1217H329.58Zm357-31.78h-8V1081h8Zm0-107H622.79v-15.46h63.83Zm0-18.18H622.79v-23.17h63.83ZM740,1185.18V1081h7v104.23Zm-25.54-50.76h22.82v24.12H714.43Zm22.82-2.71H714.43v-23.92h22.82Zm-22.82,29.54h22.82v23.93H714.43Zm22.82-56.18H714.43V1081h22.82Zm-25.54,80.11h-7V1081h7Zm-9.71,0h-8.13V1081H702Zm55.71,0h-8V1081h8Zm0-107H693.87v-15.46h63.84Zm0-18.18H693.87v-23.17h63.84Zm71.08,18.18H765v-15.46h63.83Zm-17.73,107V1081h7v104.23ZM765,1081h8.13v104.23H765Zm10.84,0h7v104.23h-7Zm32.54,50.76H785.51v-23.92h22.83Zm-22.83,2.71h22.83v24.12H785.51Zm22.83-29.35H785.51V1081h22.83Zm-22.83,56.18h22.83v23.93H785.51Zm43.28,23.93h-8V1081h8Zm0-125.13H765v-23.17h63.83Zm53.35,125.13V1081h7v104.23Zm-25.55-50.76h22.84v24.12H856.59Zm22.84-2.71H856.59v-23.92h22.84Zm-22.84,29.54h22.84v23.93H856.59Zm22.84-56.18H856.59V1081h22.84Zm-25.55,80.11h-7V1081h7Zm-9.71,0H836V1081h8.13Zm55.71,0h-8V1081h8Zm0-107H836v-15.46h63.84Zm0-18.18H836v-23.17h63.84Zm53.35,125.13V1081h7v104.23Zm-25.55-50.76h22.83v24.12H927.68Zm22.83-2.71H927.68v-23.92h22.83Zm-22.83,29.54h22.83v23.93H927.68Zm22.83-56.18H927.68V1081h22.83ZM925,1185.18h-7V1081h7Zm-9.7,0h-8.13V1081h8.13Zm55.71,0h-8V1081h8Zm0-107H907.13v-15.46H971Zm0-18.18H907.13v-23.17H971Zm53.34,125.13V1081h7v104.23Zm-25.54-50.76h22.83v24.12H998.77Zm22.83-2.71H998.77v-23.92h22.83Zm-22.83,29.54h22.83v23.93H998.77Zm22.83-56.18H998.77V1081h22.83Zm-25.55,80.11h-7V1081h7Zm-9.71,0h-8.13V1081h8.13Zm55.71,0h-8V1081h8Zm0-107H978.21v-15.46h63.84Zm0-18.18H978.21v-23.17h63.84Zm53.35,125.13V1081h7v104.23Zm-25.55-50.76h22.83v24.12h-22.83Zm22.83-2.71h-22.83v-23.92h22.83Zm-22.83,29.54h22.83v23.93h-22.83Zm22.83-56.18h-22.83V1081h22.83Zm-25.55,80.11h-7V1081h7Zm-9.71,0h-8.12V1081h8.12Zm55.71,0h-8V1081h8Zm0-107H1049.3v-15.46h63.83Zm0-18.18H1049.3v-23.17h63.83Zm71.09-23.17v23.17h-63.84v-23.17Zm-63.84,151h63.84v15.63h-63.84Zm112.81,13.19h-41.72v-21.51h41.72Zm29.09-24.23h-26.37v-45.71h26.37Zm59.09-45.71v45.71H1295v-45.71Zm2.72,48.43h39.67v21.51h-39.67Zm0-314.68h39.67v21.5h-39.67ZM1295,889.1h26.37v45.67H1295Zm-59.09,45.67V889.1h26.37v45.67Zm-44.44-48.38v-21.5h41.72v21.5Zm136.32-275V583h36v28.37Zm24.38-35.61V454.05h11.59V575.73ZM1363.76,171h-11.59V160.14h11.59Zm-14.31,0h-38.88V160.14h38.88Zm-38.88-13.6V36.27h38.88V157.43Zm-2.72,0h-11.63V36.27h11.63Zm-18.87,0h-11.63V36.27H1289Zm-14.35,0h-38.88V36.27h38.88Zm-41.6,0H1221.4V36.27H1233Zm-18.88,0h-11.63V36.27h11.63Zm-14.35,0h-38.88V36.27h38.88Zm-41.6,0h-11.63V36.27h11.63Zm-18.88,0h-11.63V36.27h11.63Zm-14.34,0h-38.89V36.27H1125Zm-41.61,0h-11.62V36.27h11.62Zm-18.87,0h-11.63V36.27h11.63Zm-14.35,0h-38.88V36.27h38.88Zm-41.6,0H996.92V36.27h11.63Zm-18.88,0H978V36.27h11.63Zm-14.35,0H936.44V36.27h38.88Zm-41.6,0H922.09V36.27h11.63Zm-18.87,0H903.22V36.27h11.63Zm-14.35,0H861.62V36.27H900.5Zm-41.6,0H847.27V36.27H858.9Zm-18.88,0H828.39V36.27H840Zm-14.35,0H786.79V36.27h38.88Zm-41.6,0H772.44V36.27h11.63Zm-18.88,0H753.56V36.27h11.63Zm-14.34,0H712V36.27h38.89Zm-41.61,0H697.61V36.27h11.63Zm-18.87,0H678.74V36.27h11.63Zm-14.35,0H637.14V36.27H676Zm-41.6,0H622.79V36.27h11.63ZM37.48,1228.73v-9.06H58.83v9.06Zm24.07,0v-9.06H82.9v9.06Zm24.07,0v-9.06H107v9.06Zm24.06,0v-9.06H131v9.06Zm24.07,0v-9.06H155.1v9.06Zm24.07,0v-9.06h21.35v9.06Zm24.07,0v-9.06h21.35v9.06Zm24.06,0v-9.06H227.3v9.06Zm24.07,0v-9.06h21.35v9.06Zm24.06,0v-9.06h21.35v9.06Zm24.07,0v-9.06H299.5v9.06Zm24.07-9.06h20.12v9.06H302.22Zm28.46,9.06v-9.06H352v9.06Zm24.07,0v-9.06H376.1v9.06Zm24.06,0v-9.06h21.35v9.06Zm24.07,0v-9.06h21.35v9.06Zm24.07,0v-9.06H448.3v9.06Zm24.07,0v-9.06h21.34v9.06Zm24.06,0v-9.06h21.35v9.06Zm24.07,0v-9.06H520.5v9.06Zm24.06,0v-9.06h21.35v9.06Zm24.07,0v-9.06h21.35v9.06Zm24.07,0v-9.06H592.7v9.06Zm24.07-9.06h20.11v9.06H595.42Zm27.37-13.44h63.83v22.5H622.79Zm71.08,0h63.84v22.5H693.87Zm71.09,0h63.83v22.5H765Zm71.08,0h63.84v22.5H836Zm71.09,0H971v22.5H907.13Zm71.08,0h63.84v22.5H978.21Zm71.09,0h63.83v22.5H1049.3Zm71.08,0h63.84v22.5h-63.84Zm71.09,22.34V1203.8h41.72v24.93h-41.72Zm44.44-49h26.37v49.16h-26.37Zm29.08-48.43h27.3v97.59H1265Zm30,48.43h26.37v49.16H1295Zm68.76-317.4h-39.67v-25h-2.72v49.22H1295V837.17h-2.71v97.6H1265v-97.6h-2.71v49.22h-26.37V837.17h-2.72v25h-41.72V836.9h172.29Zm0-704.74h-11.59V36.27h11.59Zm-39.67,1071.3V1203.8h39.67v24.93Z"/><path d="M156.34,1191.64h47.14v-18.16H156.34Zm2.72-15.44h41.7v12.72h-41.7Z"/><path d="M449.54,1191.64h47.13v-18.16H449.54Zm2.72-15.44H494v12.72h-41.7Z"/><path d="M290.74,197.72V125h-.64l-30.52,71.82H246.33L215.81,125h-.55v72.73H197.44V93h22.94L252.73,170h.54L285.53,93h22.93V197.72Z"/><path d="M362.33,90.82c21.47,0,36.91,12.7,36.91,30,0,12.79-7.95,22.38-21.47,35.18l-26.32,25.12v.46h49.34v16.17H325.05V184.11L364.61,146c11.79-11.52,15.26-16.82,15.26-24.4,0-8.32-7.77-14.89-18.18-14.89-11.06,0-19.19,7.49-19.19,17.54v.27H324v-.27C324,104.71,339.85,90.82,362.33,90.82Z"/><path d="M144.91,90.82c-11.83-.87-21.86,6.61-27.45,6.61S103,91,93.74,91.19a35.14,35.14,0,0,0-29.7,18c-12.66,22-3.23,54.53,9.1,72.36,6,8.72,13.22,18.53,22.67,18.18,9.09-.36,12.54-5.89,23.53-5.89s14.09,5.89,23.7,5.71c9.79-.18,16-8.89,22-17.65A79.06,79.06,0,0,0,175,161.48c-.22-.09-19.09-7.32-19.27-29.06-.18-18.17,14.83-26.91,15.51-27.33C162.69,92.55,149.54,91.17,144.91,90.82Z"/><path d="M137.61,79.05c5-6.06,8.4-14.52,7.47-22.92-7.23.28-16,4.81-21.15,10.88-4.64,5.37-8.72,14-7.61,22.21C124.37,89.84,132.59,85.13,137.61,79.05Z"/></g></svg>